PathFileType	4	(X/Y/Z)	\\Move.snu.ac.kr\motion\Animal\091204_091205_Bird\091205_bird\Project 2\Capture day 2\Session 1\pigeon_029.trc
DataRate	CameraRate	NumFrames	NumMarkers	Units	OrigDataRate	OrigDataStartFrame	OrigNumFrames
240.0	240.0	11	14	mm	240.0	208	3339
Frame#	Time	14MarkersBird:Head			14MarkersBird:C_back			14MarkersBird:Spine			14MarkersBird:L-shoulder			14MarkersBird:L-elbow			14MarkersBird:L-wrist			14MarkersBird:L-hand			14MarkersBird:R-shoulder			14MarkersBird:R-elbow			14MarkersBird:R-Wrist			14MarkersBird:R-hand			14MarkersBird:C_Tail			14MarkersBird:L-Tale			14MarkersBird:R-Tale			
		X1	Y1	Z1	X2	Y2	Z2	X3	Y3	Z3	X4	Y4	Z4	X5	Y5	Z5	X6	Y6	Z6	X7	Y7	Z7	X8	Y8	Z8	X9	Y9	Z9	X10	Y10	Z10	X11	Y11	Z11	X12	Y12	Z12	X13	Y13	Z13	X14	Y14	Z14	

2643	11.008	-1517.28882	1561.45044	-1361.74207	-1452.47253	1571.15356	-1367.09717	-1399.31592	1564.58362	-1381.98059	-1477.99927	1559.80103	-1342.76770	-1454.30029	1547.70496	-1322.15625	-1488.24756	1522.77380	-1308.04333	-1499.66064	1500.30872	-1297.07288	-1488.25928	1562.11169	-1388.40723	-1481.02600	1558.32190	-1413.00720	-1516.40393	1534.16394	-1416.84412	-1535.75854	1517.65906	-1415.24927	-1296.71460	1496.99915	-1401.56030	-1343.82288	1520.78101	-1304.78894	-1373.39478	1538.88086	-1489.95288	
2644	11.012	-1530.45813	1556.58337	-1359.22241	-1465.89551	1567.04187	-1364.81604	-1412.70044	1560.00378	-1379.85620	-1491.08203	1555.89075	-1340.39197	-1466.06750	1543.25891	-1320.55774	-1502.91577	1521.23596	-1308.67200	-1515.78259	1497.21057	-1303.08240	-1501.76501	1557.91748	-1385.87317	-1493.08545	1553.63306	-1410.69885	-1529.38281	1530.64368	-1410.13892	-1548.84387	1512.98547	-1404.98450	-1311.70276	1490.28979	-1401.46667	-1355.65967	1513.34192	-1304.60071	-1387.80640	1532.92847	-1487.94250	
2645	11.017	-1543.85266	1551.58240	-1356.66199	-1479.66541	1562.47424	-1362.52759	-1426.34729	1555.33557	-1377.67114	-1504.31921	1551.71509	-1337.97852	-1477.30518	1540.01868	-1318.89197	-1516.39380	1521.85071	-1307.40381	-1530.07764	1497.20703	-1305.54065	-1515.40820	1553.57141	-1383.31702	-1504.69189	1550.29285	-1408.59570	-1542.04724	1529.89661	-1405.36011	-1562.60083	1507.80737	-1399.53638	-1326.71936	1483.93799	-1401.10864	-1367.77783	1505.80530	-1304.47742	-1402.42883	1525.87769	-1485.70093	
2646	11.021	-1557.46155	1546.43872	-1354.06299	-1493.78528	1557.43701	-1360.26245	-1440.22388	1550.64246	-1375.39758	-1517.80774	1547.08569	-1335.58777	-1488.34741	1537.79517	-1317.33508	-1528.73645	1523.91797	-1304.55701	-1542.55371	1498.89050	-1304.18652	-1529.12024	1549.03967	-1380.69714	-1515.89148	1548.13477	-1406.45276	-1554.41052	1531.21143	-1402.38525	-1574.95386	1505.56079	-1398.32336	-1341.70068	1477.89807	-1400.40234	-1380.10071	1498.67700	-1304.23328	-1416.99829	1518.18457	-1483.16565	
2647	11.025	-1571.23938	1541.14795	-1351.43665	-1508.18372	1551.98560	-1358.03772	-1454.26843	1545.92163	-1373.02673	-1531.53113	1541.96826	-1333.30493	-1499.55774	1536.36853	-1316.18884	-1540.12402	1526.75647	-1300.72021	-1553.10718	1501.03833	-1299.68933	-1542.89526	1544.03430	-1377.85535	-1526.68530	1546.88440	-1403.82788	-1566.39075	1533.88281	-1400.72083	-1585.23828	1504.01794	-1400.69763	-1356.52771	1472.16211	-1399.25732	-1392.59534	1492.34753	-1303.60376	-1431.22327	1510.53479	-1480.36389	
2648	11.029	-1585.10864	1535.70764	-1348.79968	-1522.76294	1546.21228	-1355.85254	-1468.41638	1541.08362	-1370.59106	-1545.41431	1536.44946	-1331.16821	-1511.25366	1535.47400	-1315.72913	-1550.81995	1529.86462	-1296.57776	-1561.50940	1503.14819	-1293.20044	-1556.63757	1538.73535	-1374.76746	-1537.15259	1546.16870	-1400.19873	-1577.86853	1537.33582	-1399.68469	-1594.96411	1502.92664	-1403.28198	-1371.08093	1466.71069	-1397.60059	-1405.32202	1487.02161	-1302.31665	-1444.87366	1503.68164	-1477.43628	
2649	11.033	-1598.97461	1530.11292	-1346.16345	-1537.49866	1540.22754	-1353.67700	-1482.61157	1536.02722	-1368.14441	-1559.41748	1530.64990	-1329.14307	-1523.64453	1534.76831	-1316.10962	-1561.13208	1532.88110	-1292.83862	-1567.60864	1505.48755	-1286.03149	-1570.15808	1533.32336	-1371.48645	-1547.52368	1545.52441	-1395.17651	-1588.76550	1541.04224	-1398.45178	-1603.60242	1505.18787	-1407.12561	-1385.27393	1461.48999	-1395.40369	-1418.41150	1482.74231	-1300.18079	-1457.89331	1498.27368	-1474.58032	
2650	11.038	-1612.76050	1524.38269	-1343.54163	-1552.44141	1534.14331	-1351.45313	-1496.79919	1530.70105	-1365.72266	-1573.52014	1524.68542	-1327.12964	-1536.79858	1533.84009	-1317.32654	-1571.43262	1535.44739	-1290.11694	-1571.66675	1508.65833	-1279.58020	-1583.47571	1527.82227	-1368.09509	-1558.14197	1544.42224	-1388.70581	-1599.14172	1544.43762	-1396.21301	-1609.87219	1510.08923	-1411.69409	-1399.06104	1456.43848	-1392.67908	-1431.98474	1479.45886	-1297.14880	-1470.48132	1494.62756	-1471.95215	
2651	11.042	-1626.43921	1518.56311	-1340.95544	-1568.03601	1527.91711	-1349.08093	-1510.92786	1525.10510	-1363.33252	-1587.66431	1518.64832	-1325.02026	-1550.65247	1532.28076	-1319.19824	-1582.13049	1537.18469	-1288.71509	-1574.61890	1513.09473	-1275.16357	-1596.70227	1522.22278	-1364.68713	-1569.32507	1542.34912	-1381.12781	-1609.24878	1546.98071	-1392.50208	-1615.04773	1516.47192	-1415.45813	-1412.43188	1451.53137	-1389.45569	-1446.09363	1477.03809	-1293.34253	-1483.03247	1492.55286	-1469.58630	
2652	11.046	-1640.04517	1512.71094	-1338.43140	-1583.85364	1521.70105	-1346.62085	-1524.96179	1519.25269	-1360.97437	-1601.73096	1512.59851	-1322.75476	-1565.03870	1529.80701	-1321.38318	-1593.50159	1537.82532	-1288.45361	-1577.94812	1518.78564	-1273.52466	-1609.95435	1516.51379	-1361.35645	-1581.21680	1539.00256	-1373.04553	-1619.46094	1548.31458	-1387.41211	-1619.25623	1524.51721	-1417.32751	-1425.37354	1446.84131	-1385.76111	-1460.70923	1475.22314	-1289.02283	-1495.95251	1491.41028	-1467.39856	
2653	11.050	-1653.63525	1506.86853	-1335.98608	-1596.56726	1516.42700	-1344.50269	-1538.89319	1513.15845	-1358.65076	-1615.61548	1506.55920	-1320.33972	-1579.75793	1526.36731	-1323.44312	-1605.48767	1537.36243	-1288.70215	-1583.09863	1525.31677	-1274.39233	-1623.34680	1510.68469	-1358.19617	-1593.79504	1534.42468	-1365.12061	-1630.10974	1548.39368	-1381.54553	-1622.98608	1534.01001	-1416.19006	-1437.84949	1442.53992	-1381.64661	-1475.72852	1473.62463	-1284.51074	-1509.47083	1490.40833	-1465.26196	
